PathFileType  4	(X/Y/Z) C:\Users\antoi\Documents\MyRepositories\mobilecap\ResultsAnalysis
DataRate	CameraRate	NumFrames	NumMarkers	Units	OrigDataRate	OrigDataStartFrame	OrigNumFrames
100.0	100.0	6	51	mm	100.0	1	1414
Frame#	Time	r_knee			r_shank_antsup			r_ankle			r_calc			r_5meta			r_toe			L_knee			L_shank_antsup			L_ankle			L_calc			L_5meta			L_toe			r_sh2			r_sh3			r_sh4			L_sh2			L_sh3			r_thigh1			r_thigh2			r_thigh3			r_thigh4			r_thigh5			L_thigh1			L_thigh2			L_thigh3			L_thigh4			r.ASIS			r.PSIS			L.ASIS			L.PSIS			C7			R_Shoulder			L_Shoulder			R_Sternum			L_Sternum			R_humerus			R_elbow_med			R_elbow_lat			R_forearm			R_wrist_radius			R_wrist_ulna			L_humerus			L_elbow_med			L_elbow_lat			L_forearm			L_wrist_radius			L_wrist_ulna			R_HJC			L_HJC			R_HJC_reg			L_HJC_reg			
		X1	Y1	Z1	X2	Y2	Z2	X3	Y3	Z3	X4	Y4	Z4	X5	Y5	Z5	X6	Y6	Z6	X7	Y7	Z7	X8	Y8	Z8	X9	Y9	Z9	X10	Y10	Z10	X11	Y11	Z11	X12	Y12	Z12	X13	Y13	Z13	X14	Y14	Z14	X15	Y15	Z15	X16	Y16	Z16	X17	Y17	Z17	X18	Y18	Z18	X19	Y19	Z19	X20	Y20	Z20	X21	Y21	Z21	X22	Y22	Z22	X23	Y23	Z23	X24	Y24	Z24	X25	Y25	Z25	X26	Y26	Z26	X27	Y27	Z27	X28	Y28	Z28	X29	Y29	Z29	X30	Y30	Z30	X31	Y31	Z31	X32	Y32	Z32	X33	Y33	Z33	X34	Y34	Z34	X35	Y35	Z35	X36	Y36	Z36	X37	Y37	Z37	X38	Y38	Z38	X39	Y39	Z39	X40	Y40	Z40	X41	Y41	Z41	X42	Y42	Z42	X43	Y43	Z43	X44	Y44	Z44	X45	Y45	Z45	X46	Y46	Z46	X47	Y47	Z47	X48	Y48	Z48	X49	Y49	Z49	X50	Y50	Z50	X51	Y51	Z51	

1	0.00000000	-214.22307	553.11874	-465.16150	-191.96878	427.15657	-452.95697	-308.41491	100.99730	-432.08975	-362.08085	62.88608	-491.55908	-184.22404	40.94190	-361.45518	-135.95036	67.43013	-425.77427	-252.76381	545.22345	-883.25136	-213.89208	443.48206	-881.48336	-290.54410	99.77739	-902.94018	-347.74331	66.28925	-852.25992	-153.63899	35.73293	-953.85577	-114.88679	58.11727	-887.34923	-199.06253	311.61227	-460.71733	-261.07726	428.14713	-416.27254	-264.05138	311.96642	-406.00756	-297.03120	447.88291	-916.55630	-277.96200	328.01922	-940.16979	-109.70310	784.76560	-493.74338	-114.65170	671.65919	-496.98863	-150.74582	649.25995	-444.31545	-204.79469	783.85676	-430.85490	-203.72873	664.97129	-438.77142	-264.60811	797.51193	-911.02159	-265.28378	658.96041	-904.50287	-154.24493	797.16775	-885.02052	-155.51533	660.74883	-887.23388	-142.36263	1049.32629	-532.55607	-346.33134	1081.28857	-626.26328	-132.68587	1041.38547	-801.32804	-343.38546	1084.52100	-723.85881	-296.97054	1582.10647	-683.38969	-228.07292	1506.72937	-489.71518	-203.86918	1522.52223	-853.39068	-164.12224	1498.80321	-652.66358	-161.23584	1495.75191	-693.62510	-214.48426	1337.02026	-415.45553	-290.41456	1116.02634	-448.16294	-258.37020	1145.15659	-365.88981	-113.03152	1197.32327	-433.20213	-9.41092	1215.23923	-489.29064	-0.57055	1172.17690	-495.14858	-182.05946	1349.08475	-935.50131	-265.53559	1128.65725	-922.98693	-208.29926	1155.79187	-985.68354	-102.24606	1216.73479	-876.59953	-4.34453	1229.79853	-812.10430	3.13685	1182.99605	-814.41318	-225.01892	969.03509	-570.99607	-215.31949	953.92080	-783.63092	-212.97541	959.91483	-575.86205	-207.62055	965.79055	-753.26580	
2	0.01000000	-213.84413	553.12314	-465.30553	-191.79315	427.03999	-453.50949	-308.48139	100.97795	-432.27337	-362.66379	62.52699	-491.10923	-183.20164	41.56647	-363.07133	-136.00741	68.23483	-427.85772	-253.77899	545.01699	-882.80950	-214.70882	443.52665	-881.40101	-290.60011	99.67806	-902.85761	-347.73808	66.18772	-852.19065	-153.67669	35.77209	-953.90673	-114.93403	58.15094	-887.38058	-199.12805	311.45218	-461.75450	-260.46713	428.04275	-416.29721	-263.89766	311.73094	-406.58537	-297.95678	447.75245	-916.42142	-278.62584	328.17789	-940.22730	-109.93914	784.77854	-494.68277	-114.72558	671.65989	-498.10333	-150.20006	649.47324	-444.86901	-204.42355	783.84376	-430.81157	-203.22987	665.07024	-438.94146	-265.22122	797.50392	-910.93188	-266.00086	659.00047	-904.56473	-154.97641	797.01694	-885.08095	-156.25174	660.59139	-887.14047	-143.11031	1049.44000	-532.66089	-347.00848	1081.62961	-626.44759	-132.90164	1041.36387	-801.55425	-343.71939	1084.54234	-724.01774	-296.75658	1582.36538	-683.39602	-228.15074	1506.68712	-489.80991	-203.48955	1522.77312	-853.25967	-164.02580	1498.79301	-652.71162	-161.11832	1495.82245	-693.72103	-214.29739	1336.95657	-415.74099	-289.47390	1116.17789	-448.84172	-257.66678	1145.06605	-366.05804	-112.47868	1197.57151	-433.42677	-8.72424	1215.84379	-489.11931	0.41426	1172.81037	-494.90664	-181.45446	1349.42691	-935.32378	-265.95708	1129.20021	-925.10504	-207.19949	1156.14998	-985.87805	-101.33315	1217.27584	-876.61436	-3.50217	1230.59633	-812.24015	3.92566	1183.86257	-814.37735	-225.67076	969.19787	-571.09256	-215.76625	953.95257	-783.70854	-214.00104	960.39598	-575.97169	-208.01769	965.69480	-753.46872	
3	0.02000000	-213.52772	553.24706	-465.31262	-191.62770	426.93783	-453.90671	-308.50023	100.97592	-432.45736	-363.22028	62.03831	-490.50854	-182.22352	42.04600	-364.50703	-136.05053	69.00802	-429.81298	-254.79136	544.97745	-882.58467	-215.62544	443.71095	-881.39720	-290.67422	99.59807	-902.82595	-347.74240	66.10185	-852.23292	-153.69666	35.77624	-953.93150	-114.95903	58.15696	-887.39876	-199.26050	311.30986	-462.49638	-260.06084	428.02211	-416.41524	-263.66724	311.53970	-406.94357	-298.91121	447.71933	-916.26261	-279.30689	328.16299	-940.10079	-110.27010	784.80152	-495.43075	-114.84561	671.68975	-498.87667	-149.93472	649.63340	-445.19806	-204.22643	783.75979	-430.85173	-202.95236	665.07664	-439.04999	-265.82402	797.40850	-910.71044	-266.77851	659.03588	-904.47677	-155.62288	796.89627	-884.93571	-157.12565	660.41961	-886.69210	-143.90801	1049.48061	-532.74042	-347.67440	1081.92640	-626.44567	-133.11892	1041.33083	-801.67759	-344.08327	1084.66030	-724.32124	-296.48074	1582.59930	-683.37282	-228.16658	1506.61463	-489.91468	-203.03044	1523.00861	-853.11850	-163.92199	1498.81167	-652.66780	-160.98780	1495.88129	-693.80687	-214.06867	1336.89336	-416.05994	-288.51341	1116.08198	-449.40412	-256.98724	1144.93866	-366.36030	-111.86465	1197.78951	-433.56376	-8.00960	1216.48410	-488.83257	1.39537	1173.40407	-494.63187	-180.76257	1349.77978	-935.20689	-265.38911	1129.52862	-925.90823	-206.13449	1156.50638	-986.10061	-100.49097	1217.81714	-876.70738	-2.73742	1231.35608	-812.26869	4.69892	1184.60318	-814.14040	-226.39087	969.31038	-571.17876	-216.24363	954.00973	-783.77939	-214.96567	960.70763	-576.11612	-208.45259	965.66686	-753.65039	
4	0.03000000	-213.39457	553.32757	-465.28965	-191.50740	426.82331	-454.15270	-308.50198	100.95381	-432.56511	-363.69936	61.69227	-489.97647	-181.35535	42.32910	-365.75044	-136.02871	69.65351	-431.53003	-255.77980	545.09774	-882.49216	-216.56981	443.98900	-881.45959	-290.75048	99.59764	-902.88025	-347.74760	66.00637	-852.27042	-153.70448	35.75748	-953.93639	-114.96973	58.14500	-887.40677	-199.41043	311.21795	-462.98062	-259.77978	428.04549	-416.51280	-263.42417	311.34109	-407.03759	-299.85735	447.76765	-916.04555	-279.95505	328.05372	-939.79007	-110.60626	784.84308	-495.86847	-115.06525	671.76469	-499.28046	-149.92023	649.68177	-445.38436	-204.28781	783.65803	-430.86982	-202.94577	665.03180	-439.08880	-266.41193	797.26741	-910.37988	-267.63494	659.02936	-904.26671	-156.18786	796.74892	-884.52329	-158.05368	660.22432	-886.01984	-144.67957	1049.44106	-532.66009	-348.25175	1082.17078	-626.35174	-133.32227	1041.27352	-801.60761	-344.49961	1084.92320	-724.64900	-296.16135	1582.82165	-683.37880	-228.17673	1506.50015	-490.00209	-202.52473	1523.23350	-852.95923	-163.80464	1498.82268	-652.52807	-160.79195	1495.94991	-693.72446	-213.82101	1336.83400	-416.30976	-287.51237	1115.80122	-449.77362	-256.31514	1144.72291	-366.80208	-111.23202	1198.06538	-433.52075	-7.28835	1217.11102	-488.48765	2.29836	1174.00838	-494.30179	-179.96695	1350.12806	-935.15577	-264.18623	1129.73603	-925.92570	-205.09168	1156.81137	-986.24810	-99.71634	1218.29979	-876.76121	-2.05893	1232.01238	-812.08842	5.45754	1185.24567	-813.86427	-227.16345	969.37778	-571.18917	-216.71978	954.09195	-783.77657	-215.72240	960.74798	-576.15091	-208.94450	965.71921	-753.69747	
5	0.04000000	-213.47713	553.23120	-465.30432	-191.41278	426.72554	-454.27011	-308.52609	100.90673	-432.51814	-364.05122	61.72278	-489.74529	-180.63075	42.43175	-366.80264	-135.96263	70.04353	-432.98648	-256.76053	545.19174	-882.20135	-217.45495	444.16197	-881.31976	-290.80372	99.63601	-902.92881	-347.72657	65.93341	-852.22693	-153.70876	35.74412	-953.93862	-114.98301	58.13868	-887.41715	-199.52687	311.16028	-463.30534	-259.51639	428.02623	-416.33065	-263.21923	311.13404	-406.93362	-300.71156	447.82841	-915.79896	-280.55421	327.99051	-939.40920	-110.90787	784.90404	-496.01195	-115.40749	671.85898	-499.48525	-150.02421	649.64200	-445.48050	-204.56173	783.55515	-430.77881	-203.12261	664.94391	-439.08179	-266.94723	797.20762	-910.07276	-268.51389	658.96735	-903.95530	-156.72649	796.49468	-883.85041	-158.89561	659.99123	-885.40475	-145.37470	1049.38748	-532.30298	-348.71538	1082.39872	-626.31382	-133.45321	1041.20180	-801.04607	-344.96155	1085.30772	-724.70701	-295.86031	1583.03574	-683.40925	-228.23266	1506.40746	-490.00774	-202.07899	1523.45908	-852.79687	-163.67123	1498.77377	-652.35422	-160.53427	1496.00634	-693.45121	-213.59724	1336.79647	-416.38898	-286.49465	1115.46737	-450.07287	-255.64351	1144.42820	-367.20445	-110.61204	1198.41439	-433.31795	-6.58102	1217.68105	-488.16101	3.07651	1174.62316	-493.99224	-179.10776	1350.44905	-935.13252	-263.09705	1129.95402	-926.12771	-204.00602	1157.08937	-986.31232	-98.96413	1218.73666	-876.65842	-1.39326	1232.58766	-811.77215	6.23645	1185.89812	-813.80064	-227.96842	969.45834	-570.94761	-217.10563	954.18839	-783.51507	-216.21507	960.65602	-575.88177	-209.44675	965.90172	-753.30203	
6	0.05000000	-213.64864	553.10006	-465.19630	-191.29603	426.68692	-454.22929	-308.55591	100.88008	-432.36843	-364.28911	61.88381	-489.61941	-180.05124	42.37951	-367.63118	-135.91401	70.13811	-434.16375	-257.72908	545.15124	-881.61984	-218.26754	444.15552	-880.79001	-290.82684	99.60859	-902.85287	-347.71703	65.91509	-852.20664	-153.71125	35.74349	-953.93819	-114.99593	58.14347	-887.42456	-199.62779	311.08615	-463.44660	-259.30693	428.02324	-415.82843	-263.01797	310.98459	-406.78071	-301.46392	447.84044	-915.53312	-281.14514	327.99090	-939.01966	-111.30713	784.99641	-495.90996	-115.80598	671.93181	-499.55319	-150.25064	649.65150	-445.29987	-204.94016	783.40107	-430.58608	-203.38131	664.77152	-439.01988	-267.36576	797.26671	-909.80992	-269.29890	658.89775	-903.47053	-157.25135	796.20569	-883.00993	-159.65094	659.71562	-884.70333	-146.09540	1049.43516	-531.75503	-349.14763	1082.58845	-626.32473	-133.67025	1041.25070	-800.48475	-345.39132	1085.67505	-724.46880	-295.60702	1583.23421	-683.37443	-228.30301	1506.38483	-489.93235	-201.69964	1523.67154	-852.65266	-163.53770	1498.69020	-652.20407	-160.29452	1495.99327	-693.15847	-213.41011	1336.78502	-416.35471	-285.56331	1115.10275	-450.37912	-255.01320	1144.15767	-367.42111	-109.97276	1198.64286	-433.17748	-5.86085	1218.23149	-487.77051	3.82991	1175.17755	-493.74529	-178.24101	1350.73704	-935.11854	-262.17891	1130.15907	-926.46426	-202.87812	1157.43209	-986.40988	-98.20442	1219.20881	-876.45480	-0.71452	1233.16404	-811.47081	7.02460	1186.60808	-813.85553	-228.71473	969.58345	-570.60529	-217.45881	954.34807	-783.15482	-216.69329	960.52541	-575.49294	-209.90549	966.10590	-752.90887	
